<?xml version="1.0" standalone="no"?>
<!DOCTYPE svg PUBLIC "-//W3C//DTD SVG 20010904//EN"
 "http://www.w3.org/TR/2001/REC-SVG-20010904/DTD/svg10.dtd">
<svg version="1.0" xmlns="http://www.w3.org/2000/svg"
 width="150.000000pt" height="150.000000pt" viewBox="0 0 150.000000 150.000000"
 preserveAspectRatio="xMidYMid meet">
<metadata>
Created by potrace 1.14, written by Peter Selinger 2001-2017
</metadata>
<g transform="translate(0.000000,150.000000) scale(0.100000,-0.100000)"
fill="#000000" stroke="none">
<path d="M431 1114 c1 -69 3 -89 9 -67 12 52 37 81 77 92 54 15 303 14 303 -1
0 -6 -11 -31 -25 -55 l-26 -43 95 0 94 0 46 80 c25 43 46 81 46 83 0 2 -30 -1
-67 -6 -75 -10 -495 -4 -530 8 -23 7 -23 7 -22 -91z"/>
<path d="M705 927 c-19 -35 -35 -67 -35 -70 0 -4 40 -7 90 -7 l90 0 23 38 c13
20 32 52 41 70 l17 32 -95 0 -95 0 -36 -63z"/>
<path d="M593 728 c-23 -40 -38 -75 -33 -78 4 -3 48 -4 96 -2 l89 3 38 69 c20
38 37 72 37 75 0 3 -42 5 -93 5 l-93 0 -41 -72z"/>
<path d="M1046 564 c-33 -63 -73 -97 -131 -113 -40 -11 -285 -16 -285 -6 0 3
18 37 40 76 22 39 40 73 40 75 0 2 -42 4 -94 4 l-95 0 -55 -97 c-30 -54 -50
-100 -45 -103 8 -6 619 -12 619 -7 0 2 9 52 20 112 11 60 19 110 17 111 -1 2
-15 -22 -31 -52z"/>
</g>
</svg>
